<svg xmlns="http://www.w3.org/2000/svg" width="42" height="42" viewBox="0 0 42 42"><defs><style>.a{fill:#d5a699;}.b{fill:#7f5b53;}.c{fill:#59474e;}.d{fill:#cb9080;}</style></defs><g transform="translate(-0.504 -0.15)"><g transform="translate(0.504 0.15)"><path class="a" d="M42.407,18.81l-4.259-7.152L42.407,4.5a.672.672,0,0,0,.028-.643.78.78,0,0,0-.54-.411L26.849.169a.821.821,0,0,0-.879.359L21.5,8.027,17.039.528a.821.821,0,0,0-.88-.359L1.113,3.451a.78.78,0,0,0-.54.411A.672.672,0,0,0,.6,4.5L4.86,11.657.6,18.81a.672.672,0,0,0-.028.643.78.78,0,0,0,.54.411l3.747.818V37.946a.739.739,0,0,0,.61.7L21.5,42.15l16.034-3.5a.739.739,0,0,0,.61-.7V20.681l3.747-.818a.78.78,0,0,0,.54-.411A.672.672,0,0,0,42.407,18.81Z" transform="translate(-0.504 -0.15)"/><path class="b" d="M43.644,14.63,27,18.26V11Z" transform="translate(-6 -3.123)"/><path class="c" d="M22.644,11v7.26L6,14.63Z" transform="translate(-1.644 -3.123)"/><path class="b" d="M43.644,26.394V43.659a.739.739,0,0,1-.61.7L27,47.862V21Z" transform="translate(-6 -5.862)"/><path class="d" d="M22.644,21V47.862L6.61,44.363a.739.739,0,0,1-.61-.7V26.394Z" transform="translate(-1.644 -5.862)"/><path class="d" d="M21.5,8.027,17.039.528a.821.821,0,0,0-.88-.359L1.113,3.451a.78.78,0,0,0-.54.411A.672.672,0,0,0,.6,4.5L4.86,11.657Z" transform="translate(-0.504 -0.15)"/><path class="a" d="M21.5,19.63l-4.465,7.5a.821.821,0,0,1-.88.359L4.86,25.024l-3.747-.818a.78.78,0,0,1-.54-.411A.672.672,0,0,1,.6,23.152L4.86,16Z" transform="translate(-0.504 -4.492)"/><path class="d" d="M27,8.027l4.465-7.5A.821.821,0,0,1,32.345.17L47.391,3.451a.78.78,0,0,1,.54.411A.672.672,0,0,1,47.9,4.5l-4.259,7.152Z" transform="translate(-6 -0.15)"/><path class="a" d="M47.9,23.152a.672.672,0,0,1,.028.643.78.78,0,0,1-.54.411l-3.747.818-11.3,2.463a.821.821,0,0,1-.879-.359L27,19.63,43.644,16Z" transform="translate(-6 -4.492)"/><path class="b" d="M13.109,44.263a.777.777,0,0,1-.769.552.841.841,0,0,1-.19-.015L6,43.436v-1.5l6.523,1.445a.793.793,0,0,1,.492.328A.675.675,0,0,1,13.109,44.263Z" transform="translate(-1.644 -11.6)"/><path class="b" d="M17.928,41.316a.785.785,0,0,1-.769.552.848.848,0,0,1-.19-.022L6,39.428V37.94l11.342,2.5a.793.793,0,0,1,.492.328A.675.675,0,0,1,17.928,41.316Z" transform="translate(-1.644 -10.504)"/><path class="b" d="M11.572,35.929a.731.731,0,0,1-.359.448.852.852,0,0,1-.6.082L6,35.436v-1.5l4.985,1.111a.793.793,0,0,1,.492.328A.675.675,0,0,1,11.572,35.929Z" transform="translate(-1.644 -9.408)"/></g></g></svg>