<svg xmlns="http://www.w3.org/2000/svg" width="42" height="42" viewBox="0 0 42 42"><defs><style>.a{fill:#b1e8ff;}.b{fill:#d7f7ff;}.c{fill:#ffbb4a;}.d{fill:#ef5a50;}.e{fill:#231f20;opacity:0.1;}.f{fill:#e6e9ed;}.g{fill:#08375e;}.h{fill:#63c3ea;}.i{fill:#3eaf91;}.j{fill:#fcc96c;}</style></defs><g transform="translate(-63.281)"><g transform="translate(66.463 18.162)"><path class="a" d="M111.379,255.86a1.489,1.489,0,0,0,.357-.946c0-1-1.078-1.812-2.407-1.812a2.99,2.99,0,0,0-1.307.291c-.014-1.22-1.332-2.206-2.957-2.206a3.917,3.917,0,0,0-.575.042,2.623,2.623,0,0,0-2.245-1.078,2.472,2.472,0,0,0-2.385,1.363,3.252,3.252,0,0,0-1.054-.172,2.589,2.589,0,0,0-2.412,1.306c-2.191.134-3.915,1.514-3.915,3.2,0,0,0,.009,0,.014Z" transform="translate(-92.479 -247.793)"/><ellipse class="a" cx="1.624" cy="1.223" rx="1.624" ry="1.223" transform="translate(16.548)"/></g><ellipse class="b" cx="1.827" cy="1.376" rx="1.827" ry="1.376" transform="translate(77.729 13.487)"/><path class="c" d="M87.773,333.791l1.182,14.055a.751.751,0,0,0,.8.564h16.324a.752.752,0,0,0,.8-.564l1.182-14.055Z" transform="translate(-21.823 -306.41)"/><path class="d" d="M97.572,488.588l.114,1.357a.752.752,0,0,0,.8.564h16.324a.752.752,0,0,0,.8-.564l.114-1.357Z" transform="translate(-30.554 -448.509)"/><path class="e" d="M91.4,347.846l-1.182-14.055H87.773l1.182,14.055a.751.751,0,0,0,.8.564H92.2A.751.751,0,0,1,91.4,347.846Z" transform="translate(-21.823 -306.41)"/><rect class="f" width="3.48" height="22.775" transform="translate(91.168 7.711)"/><path class="g" d="M221.623,461.089c0,.232.253.423.561.423h23.623c.309,0,.561-.19.561-.423V457H221.623Z" transform="translate(-141.088 -419.512)"/><path class="e" d="M223.942,461.089V457h-2.319v4.089c0,.232.253.423.561.423H224.5C224.195,461.512,223.942,461.322,223.942,461.089Z" transform="translate(-141.088 -419.512)"/><g transform="translate(70.685 22.313)"><path class="h" d="M179.916,273.908a1.024,1.024,0,0,1-.415-.086.539.539,0,0,1-.288-.843,3.139,3.139,0,0,1,4.556,0,.539.539,0,0,1-.288.843.979.979,0,0,1-1.119-.217,1.2,1.2,0,0,0-1.742,0A.9.9,0,0,1,179.916,273.908Z" transform="translate(-173.882 -272)"/><path class="h" d="M132.043,286.717a1.026,1.026,0,0,1-.415-.086.539.539,0,0,1-.288-.843,2.529,2.529,0,0,1,3.67,0,.539.539,0,0,1-.288.843.979.979,0,0,1-1.119-.216.589.589,0,0,0-.856,0A.9.9,0,0,1,132.043,286.717Z" transform="translate(-131.226 -283.934)"/></g><path class="i" d="M246.372,372.893v-1.6c0-.232-.253-.423-.561-.423h-8.858c-.309,0-.561-.19-.561-.423v-4.918c0-.232-.253-.423-.561-.423h-3.662c-.309,0-.561.19-.561.423v4.918c0,.232-.252.423-.561.423h-8.858c-.309,0-.561.19-.561.423v1.6Z" transform="translate(-141.091 -335.159)"/><g transform="translate(63.815 27.381)"><path class="g" d="M232.612,333.791v4.8c0,.542-.585.983-1.305.983H227v1.23h4.306c1.621,0,2.94-.993,2.94-2.213v-4.8Z" transform="translate(-209.694 -333.791)"/><path class="g" d="M76.662,339.576h-5.54c-.72,0-1.305-.441-1.305-.983v-4.8H68.183v4.8c0,1.22,1.319,2.213,2.94,2.213h5.54Z" transform="translate(-68.183 -333.791)"/></g><path class="d" d="M149.039,400.3c0,.52-.565.945-1.255.945h-7.733c-.69,0-1.255-.425-1.255-.945v-.356c0-.52.565-.945,1.255-.945h7.733c.69,0,1.255.425,1.255.945v.356Z" transform="translate(-67.286 -366.27)"/><path class="j" d="M88.9,315.041c0,.465-.505.845-1.122.845H64.4c-.617,0-1.123-.38-1.123-.845v-.179c0-.465.505-.845,1.123-.845H87.779c.617,0,1.122.38,1.122.845v.179Z" transform="translate(0 -288.257)"/><path class="e" d="M66.32,315.041v-.179c0-.465.505-.845,1.122-.845H64.4c-.617,0-1.123.38-1.123.845v.179c0,.465.505.845,1.123.845h3.039C66.825,315.886,66.32,315.505,66.32,315.041Z" transform="translate(0 -288.257)"/><path class="i" d="M321.525,0h-1.16c-.638,0-1.16.393-1.16.873V7.946h3.48V.873C322.685.393,322.163,0,321.525,0Z" transform="translate(-228.037)"/></g></svg>