<svg xmlns="http://www.w3.org/2000/svg" width="42" height="42" viewBox="0 0 42 42"><defs><style>.a{fill:#f0c419;}.b{fill:#f3d55b;}.c{fill:#3f5c6c;}.d{fill:#67b9cc;}.e{fill:#2fa8cc;}.f{fill:#d25627;}.g{fill:#35495e;}.h{fill:#7f5b53;}.i{fill:#95a5a5;}.j{fill:#af8066;}.k{fill:#cb9080;}.l{fill:#59474e;}.m{fill:#e64c3c;}.n{fill:#f29c1f;}.o{fill:#2c3e50;}</style></defs><g transform="translate(0.414 0)"><g transform="translate(-0.414 0)"><path class="a" d="M41.478,13.852,27.15.094a.365.365,0,0,0-.488,0L12.335,13.852a.362.362,0,0,0,.244.631h1.238v4.345H1.454A1.456,1.456,0,0,0,0,20.276v21A.728.728,0,0,0,.727,42H2.182a.728.728,0,0,0,.727-.724V39.1H14.544v2.172a.726.726,0,0,0,.727.724h1.454a.726.726,0,0,0,.727-.724V34.759H39.269A.728.728,0,0,0,40,34.034V14.483h1.238a.362.362,0,0,0,.244-.631Z" transform="translate(0.403 0)"/><path class="a" d="M22.636,40.276H44.452a.728.728,0,0,0,.727-.724V20H19v4.345Z" transform="translate(-4.781 -5.517)"/><path class="b" d="M21,40.276H43.624a.691.691,0,0,0,.646-.724V20H21Z" transform="translate(-5.326 -5.517)"/><path class="c" d="M23.873,40.516h2.618a.809.809,0,0,0,.873-.724V34.723A.809.809,0,0,0,26.491,34H23.873a.809.809,0,0,0-.873.724v5.069A.809.809,0,0,0,23.873,40.516Z" transform="translate(-5.872 -9.378)"/><rect class="d" width="17.499" height="9.484" transform="translate(0 22.762)"/><path class="e" d="M18.146,33.724v7.408H2.54C3.551,38.373,7.005,32.7,18.146,33.724Z" transform="translate(-0.29 -9.27)"/><path class="f" d="M28.58,14.483H17.161a.362.362,0,0,1-.244-.631L31.245.094a.365.365,0,0,1,.488,0L46.06,13.852a.362.362,0,0,1-.244.631H34.4" transform="translate(-4.18 0)"/><path class="c" d="M38.09,21.425H33.727A.726.726,0,0,1,33,20.7v-8.39a.723.723,0,0,1,.213-.512l2.182-2.172a.729.729,0,0,1,1.028,0L38.6,11.8a.723.723,0,0,1,.213.512V20.7A.726.726,0,0,1,38.09,21.425Z" transform="translate(-8.6 -2.597)"/><path class="g" d="M36.727,17.621A.726.726,0,0,1,36,16.9V14.724a.727.727,0,0,1,1.454,0V16.9A.726.726,0,0,1,36.727,17.621Z" transform="translate(-9.418 -3.862)"/><path class="g" d="M36.727,22.45a.73.73,0,0,1-.276-.058.846.846,0,0,1-.24-.152.732.732,0,0,1,0-1.028.84.84,0,0,1,.24-.152.733.733,0,0,1,.553,0,.842.842,0,0,1,.24.152.761.761,0,0,1,.211.514,1,1,0,0,1-.015.145A.472.472,0,0,1,37.4,22a.551.551,0,0,1-.065.13,1.159,1.159,0,0,1-.087.109.848.848,0,0,1-.24.152A.73.73,0,0,1,36.727,22.45Z" transform="translate(-9.418 -5.795)"/><path class="g" d="M37.182,18.448H35.727a.724.724,0,1,1,0-1.448h1.454a.724.724,0,1,1,0,1.448Z" transform="translate(-9.145 -4.69)"/><path class="h" d="M33.727,44.138h5.09V34.362A.359.359,0,0,0,38.454,34h-5.09a.359.359,0,0,0-.364.362V42.69Z" transform="translate(-8.6 -9.379)"/><path class="i" d="M37.727,41.45a.73.73,0,0,1-.276-.058.846.846,0,0,1-.24-.152A.76.76,0,0,1,37,40.725a.86.86,0,0,1,.015-.138.435.435,0,0,1,.044-.138.555.555,0,0,1,.065-.13l.087-.109a.748.748,0,0,1,.24-.152.733.733,0,0,1,.553,0,.754.754,0,0,1,.24.152l.087.109a.555.555,0,0,1,.065.13.446.446,0,0,1,.044.138.9.9,0,0,1,.015.138.718.718,0,0,1-.727.724Z" transform="translate(-9.691 -11.036)"/><rect class="c" width="4.861" height="6.639" rx="1" transform="translate(33.054 24.659)"/><path class="c" d="M23.727,28.345h2.909a.726.726,0,0,0,.727-.724v-2.9A.726.726,0,0,0,26.636,24H23.727a.726.726,0,0,0-.727.724v.635a.718.718,0,0,0,.022.176V27.8A.727.727,0,0,0,23.727,28.345Z" transform="translate(-5.872 -6.621)"/><rect class="c" width="4.861" height="4.742" rx="1" transform="translate(33.054 17.072)"/><path class="g" d="M17.453,27.448v2.9H0v-2.9A1.456,1.456,0,0,1,1.454,26H16A1.456,1.456,0,0,1,17.453,27.448Z" transform="translate(0.403 -7.172)"/><path class="c" d="M3.727,43.621A.726.726,0,0,1,3,42.9V41.448A1.453,1.453,0,0,1,4.454,40H7.363a.724.724,0,1,1,0,1.448H4.454V42.9A.726.726,0,0,1,3.727,43.621Z" transform="translate(-0.416 -11.034)"/><path class="c" d="M14.727,43.621A.726.726,0,0,1,14,42.9V41.448A1.453,1.453,0,0,1,15.454,40h2.909a.724.724,0,1,1,0,1.448H15.454V42.9A.726.726,0,0,1,14.727,43.621Z" transform="translate(-3.417 -11.034)"/><rect class="j" width="4.861" height="3.794" rx="1" transform="translate(20.416 37.937)"/><rect class="k" width="4.861" height="3.794" rx="1" transform="translate(20.416 37.937)"/><rect class="j" width="4.861" height="4.742" rx="1" transform="translate(20.416 33.195)"/><rect class="l" width="3.889" height="3.794" rx="1" transform="translate(25.276 37.937)"/><rect class="h" width="3.889" height="3.794" rx="1" transform="translate(25.276 37.937)"/><rect class="j" width="3.889" height="3.794" rx="1" transform="translate(36.943 37.937)"/><path class="c" d="M2.909,48v6.517a.728.728,0,0,1-.727.724H.727A.728.728,0,0,1,0,54.517V48Z" transform="translate(0.403 -13.241)"/><path class="c" d="M20,48v6.517a.726.726,0,0,0,.727.724h1.454a.726.726,0,0,0,.727-.724V48Z" transform="translate(-5.053 -13.241)"/><rect class="m" width="2.917" height="2.845" transform="translate(14.583 32.247)"/><rect class="n" width="2.917" height="1.897" transform="translate(14.583 32.247)"/><rect class="m" width="2.917" height="2.845" transform="translate(0 32.247)"/><rect class="n" width="2.917" height="1.897" transform="translate(0 32.247)"/><rect class="o" width="11.666" height="2.845" transform="translate(2.917 36.04)"/><rect class="g" width="11.666" height="3.794" transform="translate(2.917 32.247)"/><path class="o" d="M13.545,47.448H7.727a.724.724,0,1,1,0-1.448h5.818a.724.724,0,1,1,0,1.448Z" transform="translate(-1.507 -12.69)"/></g></g></svg>