<svg xmlns="http://www.w3.org/2000/svg" width="42" height="39.612" viewBox="0 0 42 39.612"><defs><style>.a{fill:#35495e;}.b{fill:#e64c3c;}.c{fill:#3f5c6c;}.d{fill:#fdd7ad;}.e{fill:#955ba5;}.f{fill:#f0c419;}.g{fill:#f3d55b;}.h{fill:#7f5b53;}</style></defs><g transform="translate(0)"><g transform="translate(0 0)"><path class="a" d="M7.973,31.575,7.2,35.269a1.824,1.824,0,0,1-.246.611L2.607,42.77a1.3,1.3,0,0,1-2.028.344A1.945,1.945,0,0,1,.29,40.7L4.461,34.09,5.8,27.7h.007a1.986,1.986,0,0,0,.34,1.4Z" transform="translate(0 -3.847)"/><path class="b" d="M19.586,19.511H15.118l-3.7-4.392L11.62,11a1.51,1.51,0,0,0-.007-.181,3.284,3.284,0,0,1-.717.078,3.8,3.8,0,0,1-2.071-.62,1.752,1.752,0,0,0-.1.517L8.463,16.05l-.348,6.992-.109,2.239h.007a1.986,1.986,0,0,0,.34,1.4l1.825,2.48,2.889,3.918v6.243a1.6,1.6,0,0,0,1.448,1.722,1.6,1.6,0,0,0,1.448-1.722V32.428a1.994,1.994,0,0,0-.355-1.137l-4.678-6.355L11,23.481l.188-3.763,2.3,2.73a1.322,1.322,0,0,0,1.021.508h5.069a1.6,1.6,0,0,0,1.448-1.722A1.6,1.6,0,0,0,19.586,19.511Z" transform="translate(-2.206 -1.428)"/><path class="c" d="M15.965,34.486v6.889A1.6,1.6,0,0,1,14.517,43.1a1.6,1.6,0,0,1-1.448-1.722V35.132l-2.889-3.918-1.825-2.48a1.986,1.986,0,0,1-.34-1.4H8.007L8.115,25.1A22.534,22.534,0,0,1,11,25.539l-.072,1.455L15.61,33.35A1.994,1.994,0,0,1,15.965,34.486Z" transform="translate(-2.206 -3.486)"/><path class="b" d="M21.079,21.234a1.9,1.9,0,0,1-.424,1.218,1.342,1.342,0,0,1-1.024.5H14.561a1.322,1.322,0,0,1-1.021-.508l-2.3-2.73-.188,3.763a22.534,22.534,0,0,0-2.889-.439l.348-6.992L8.768,10.8a1.752,1.752,0,0,1,.1-.517,3.8,3.8,0,0,0,2.071.62,3.284,3.284,0,0,0,.717-.078,1.51,1.51,0,0,1,.007.181l-.2,4.116,3.7,4.392H19.63A1.608,1.608,0,0,1,21.079,21.234Z" transform="translate(-2.251 -1.428)"/><path class="d" d="M14.69,5.167a4.988,4.988,0,0,1-3.628,5.089,3.284,3.284,0,0,1-.717.078C7.945,10.334,6,8.02,6,5.167S7.945,0,10.345,0,14.69,2.313,14.69,5.167Z" transform="translate(-1.655 0)"/><path class="a" d="M46.99,31.575l.775,3.694a1.824,1.824,0,0,0,.246.611l4.345,6.889a1.357,1.357,0,0,0,1.332.677,1.5,1.5,0,0,0,1.159-1.033,2,2,0,0,0-.173-1.71L50.5,34.09l-1.34-6.39h-.007a1.986,1.986,0,0,1-.34,1.4Z" transform="translate(-12.963 -3.847)"/><path class="e" d="M45.02,25.281h.007l-.109-2.239-.348-6.992L44.31,10.8a1.752,1.752,0,0,0-.1-.517,3.8,3.8,0,0,1-2.071.62,3.284,3.284,0,0,1-.717-.078,1.511,1.511,0,0,0-.007.181l.2,4.116-3.7,4.392H33.448A1.6,1.6,0,0,0,32,21.234a1.6,1.6,0,0,0,1.448,1.722h5.069a1.322,1.322,0,0,0,1.021-.508l2.3-2.73.188,3.763.072,1.455-4.678,6.355a1.994,1.994,0,0,0-.355,1.137v6.889a1.47,1.47,0,1,0,2.9,0V33.074l2.889-3.918,1.825-2.48A1.986,1.986,0,0,0,45.02,25.281Z" transform="translate(-8.828 -1.428)"/><path class="c" d="M39,34.486v6.889a1.47,1.47,0,1,0,2.9,0V35.132l2.889-3.918,1.825-2.48a1.986,1.986,0,0,0,.34-1.4h.007L46.85,25.1a22.534,22.534,0,0,0-2.889.439l.072,1.455L39.355,33.35A1.994,1.994,0,0,0,39,34.486Z" transform="translate(-10.759 -3.486)"/><path class="e" d="M32,21.234a1.9,1.9,0,0,0,.424,1.218,1.342,1.342,0,0,0,1.024.5h5.069a1.322,1.322,0,0,0,1.021-.508l2.3-2.73.188,3.763a22.534,22.534,0,0,1,2.889-.439l-.348-6.992L44.31,10.8a1.752,1.752,0,0,0-.1-.517,3.8,3.8,0,0,1-2.071.62,3.284,3.284,0,0,1-.717-.078,1.511,1.511,0,0,0-.007.181l.2,4.116-3.7,4.392H33.448A1.608,1.608,0,0,0,32,21.234Z" transform="translate(-8.828 -1.428)"/><path class="d" d="M40,5.167a4.988,4.988,0,0,0,3.628,5.089,3.284,3.284,0,0,0,.717.078c2.4,0,4.345-2.313,4.345-5.167S46.744,0,44.345,0,40,2.313,40,5.167Z" transform="translate(-11.034 0)"/><rect class="f" width="11.586" height="13.778" rx="1" transform="translate(15.207 4.306)"/><rect class="g" width="8.69" height="13.778" rx="1" transform="translate(16.655 4.306)"/><path class="h" d="M29.782,9.721,28.373,8.6a.315.315,0,0,0-.4,0L26.563,9.721a.314.314,0,0,1-.372.021A.448.448,0,0,1,26,9.362V5h4.345V9.362a.448.448,0,0,1-.191.38A.314.314,0,0,1,29.782,9.721Z" transform="translate(-7.172 -0.694)"/></g></g></svg>