<svg xmlns="http://www.w3.org/2000/svg" xmlns:xlink="http://www.w3.org/1999/xlink" width="42" height="42" viewBox="0 0 42 42"><defs><style>.a{fill:#2e001f;}.b{clip-path:url(#a);}.c{fill:#2fa8cc;}.d{fill:#35495e;}.e{fill:#3f5c6c;}.f{fill:#f0c419;}.g{fill:#67b9cc;}.h{fill:#804537;}.i{fill:#cc6f56;}.j{fill:#2c3e50;}.k{fill:#547580;}.l{fill:#f3d55b;}.m{fill:#c2615f;}</style><clipPath id="a"><path class="a" d="M139.285,146.2H111.133a7.043,7.043,0,0,1-6.933-7.124V111.324a7.043,7.043,0,0,1,6.933-7.124h28.134a7.03,7.03,0,0,1,6.933,7.124v27.733a7.02,7.02,0,0,1-6.914,7.143Z" transform="translate(-104.2 -104.2)"/></clipPath></defs><g transform="translate(-1.757 -1.757)"><g class="b" transform="translate(1.757 1.757)"><g transform="translate(0 0.537)"><path class="c" d="M41.819,25.052l-6.336-5.745H29.69V28.98H.724A.734.734,0,0,0,0,29.725v4.465a.734.734,0,0,0,.724.744H2.172a3.672,3.672,0,0,0,3.621,3.721,3.672,3.672,0,0,0,3.621-3.721H31.138a3.622,3.622,0,1,0,7.241,0h2.172a1.489,1.489,0,0,0,0-2.976A1.469,1.469,0,0,0,42,30.469V25.543A.744.744,0,0,0,41.819,25.052Z" transform="translate(0 2.272)"/><path class="d" d="M36.207,30.625h4.345a1.489,1.489,0,0,1,0,2.976H.724A.734.734,0,0,1,0,32.857V30.625Z" transform="translate(0 3.605)"/><path class="e" d="M39.606,25.543v4.926a1.473,1.473,0,0,1-1.448,1.488H27.3V26h4.345a1.473,1.473,0,0,0,1.448-1.488V19.307l6.336,5.745A.744.744,0,0,1,39.606,25.543Z" transform="translate(2.394 2.272)"/><path class="f" d="M36.675,27.962h2.172V29.45A1.469,1.469,0,0,1,37.4,30.938H35.951V28.706A.734.734,0,0,1,36.675,27.962Z" transform="translate(3.153 3.291)"/><path class="g" d="M33.089,19.307v5.209A1.473,1.473,0,0,1,31.641,26H27.3v-6.7Z" transform="translate(2.394 2.272)"/><path class="h" d="M.724,27.962H29.69v2.976H0V28.706A.734.734,0,0,1,.724,27.962Z" transform="translate(0 3.291)"/><path class="i" d="M.724,27.962H29.69V29.45H0v-.744A.734.734,0,0,1,.724,27.962Z" transform="translate(0 3.291)"/><path class="d" d="M32.015,31.682a.734.734,0,0,1-.724-.744V28.706a.724.724,0,1,1,1.448,0v2.232A.734.734,0,0,1,32.015,31.682Z" transform="translate(2.744 3.291)"/><path class="j" d="M5.676,36.773H2.056a.744.744,0,0,1,0-1.488H5.676a.744.744,0,0,1,0,1.488Z" transform="translate(0.117 4.153)"/><path class="j" d="M32.307,36.773H28.686a.744.744,0,0,1,0-1.488h3.621a.744.744,0,0,1,0,1.488Z" transform="translate(2.452 4.153)"/><path class="j" d="M25.859,36.773H11.376a.744.744,0,0,1,0-1.488H25.859a.744.744,0,0,1,0,1.488Z" transform="translate(0.934 4.153)"/><ellipse class="j" cx="3.621" cy="3.721" rx="3.621" ry="3.721" transform="translate(31.138 33.485)"/><ellipse class="d" cx="2.897" cy="2.976" rx="2.897" ry="2.976" transform="translate(31.862 34.229)"/><ellipse class="e" cx="1.448" cy="1.488" rx="1.448" ry="1.488" transform="translate(33.31 35.718)"/><ellipse class="k" cx="0.724" cy="0.744" rx="0.724" ry="0.744" transform="translate(34.034 36.462)"/><ellipse class="j" cx="3.621" cy="3.721" rx="3.621" ry="3.721" transform="translate(2.172 33.485)"/><ellipse class="d" cx="2.897" cy="2.976" rx="2.897" ry="2.976" transform="translate(2.897 34.229)"/><ellipse class="e" cx="1.448" cy="1.488" rx="1.448" ry="1.488" transform="translate(4.345 35.718)"/><ellipse class="k" cx="0.724" cy="0.744" rx="0.724" ry="0.744" transform="translate(5.069 36.462)"/><path class="c" d="M33.077,22.061V24.2a1.473,1.473,0,0,1-1.448,1.488H27.436A4.6,4.6,0,0,1,33.077,22.061Z" transform="translate(2.406 2.584)"/><rect class="f" width="27.517" height="28.276" transform="translate(2.172 2.976)"/><rect class="l" width="24.621" height="28.276" transform="translate(3.621 2.976)"/><rect class="m" width="31.862" height="2.976" rx="0.666" transform="translate(0)"/><path class="j" d="M15.055,21.3v7.441H9.986V22.792A1.473,1.473,0,0,1,11.435,21.3Z" transform="translate(0.876 2.508)"/><path class="d" d="M19.716,22.792v5.953H14.647V21.3h3.621A1.473,1.473,0,0,1,19.716,22.792Z" transform="translate(1.284 2.508)"/><rect class="g" width="4.345" height="5.953" rx="0.666" transform="translate(5.069 14.882)"/><rect class="g" width="4.345" height="5.953" rx="0.666" transform="translate(5.069 5.953)"/><rect class="g" width="4.345" height="5.953" rx="0.666" transform="translate(13.759 14.882)"/><rect class="g" width="4.345" height="5.953" rx="0.666" transform="translate(13.759 5.953)"/><rect class="g" width="4.345" height="5.953" rx="0.666" transform="translate(22.448 14.882)"/><rect class="g" width="4.345" height="5.953" rx="0.666" transform="translate(22.448 5.953)"/></g></g></g></svg>