<svg xmlns="http://www.w3.org/2000/svg" width="42" height="42" viewBox="0 0 42 42"><defs><style>.a{fill:#e57e25;}.b{fill:#f29c1f;}.c{fill:#d25627;}.d{fill:#95a5a5;}.e{fill:#bdc3c7;}.f{fill:#35495e;}.g{fill:#3f5c6c;}</style></defs><path class="a" d="M40.207,16.373V38.452H4V13.831L22,2.889l18.2,10.862.077,2.676Z" transform="translate(-1.103 -0.797)"/><path class="b" d="M39.239,16.373V38.452H6V13.831L22.528,2.889,39.239,13.751l.071.8Z" transform="translate(-1.655 -0.797)"/><path class="c" d="M39.181,15.63,21,4.345,2.819,15.63A1.846,1.846,0,0,1,.872,12.493L21,0,41.128,12.493a1.846,1.846,0,1,1-1.947,3.137Z"/><rect class="d" width="30.414" height="2.897" transform="translate(5.793 25.345)"/><rect class="e" width="30.414" height="2.897" transform="translate(5.793 22.448)"/><rect class="d" width="30.414" height="2.897" transform="translate(5.793 19.552)"/><path class="e" d="M38.414,24.448V25.9H8V24.448A1.453,1.453,0,0,1,9.448,23H36.966A1.453,1.453,0,0,1,38.414,24.448Z" transform="translate(-2.207 -6.345)"/><rect class="f" width="30.414" height="6.866" transform="translate(5.793 31.138)"/><path class="d" d="M28.724,45.621A.724.724,0,0,1,28,44.9V42.724a.724.724,0,0,1,1.448,0V44.9A.724.724,0,0,1,28.724,45.621Z" transform="translate(-7.724 -11.586)"/><rect class="e" width="30.414" height="2.897" transform="translate(5.793 28.241)"/><rect class="g" width="42" height="4.345" rx="2" transform="translate(0 37.655)"/></svg>